HIERARCHY
ROOT Hips
{
	OFFSET 0.000000 83.214638 0.000000
	CHANNELS 6 Xposition Yposition Zposition Xrotation Yrotation Zrotation
	JOINT Pelvis
	{
		OFFSET 0.000000 0.000000 0.000000
		CHANNELS 3 Xrotation Yrotation Zrotation
		JOINT LeftUpLeg
		{
			OFFSET 8.479700 -4.795502 -0.379100
			CHANNELS 3 Xrotation Yrotation Zrotation
			JOINT LeftLeg
			{
				OFFSET 0.024144 -32.555107 0.112900
				CHANNELS 3 Xrotation Yrotation Zrotation
				JOINT LeftFoot
				{
					OFFSET -0.024144 -32.638630 -3.012600
					CHANNELS 3 Xrotation Yrotation Zrotation
					JOINT LeftToeBase
					{
						OFFSET 0.970200 -13.225400 11.864200
						CHANNELS 3 Xrotation Yrotation Zrotation
						End Site
						{
							OFFSET 0.000000 12.319262 0.000000
						}
					}
					JOINT LFootTongue
					{
						OFFSET 1.142400 -1.059800 6.665200
						CHANNELS 3 Xrotation Yrotation Zrotation
						End Site
						{
							OFFSET 0.000000 12.319262 0.000000
						}
					}
				}
				JOINT LeftPantLeg
				{
					OFFSET 0.918482 -16.533964 -2.284700
					CHANNELS 3 Xrotation Yrotation Zrotation
					End Site
					{
						OFFSET 0.350399 24.744368 0.000000
					}
				}
			}
		}
		JOINT RightUpLeg
		{
			OFFSET -8.479700 -4.795502 -0.379100
			CHANNELS 3 Xrotation Yrotation Zrotation
			JOINT RightLeg
			{
				OFFSET -0.023144 -32.555092 0.112900
				CHANNELS 3 Xrotation Yrotation Zrotation
				JOINT RightFoot
				{
					OFFSET 0.023144 -32.638641 -3.012700
					CHANNELS 3 Xrotation Yrotation Zrotation
					JOINT RightToeBase
					{
						OFFSET -0.970200 -13.225400 11.864200
						CHANNELS 3 Xrotation Yrotation Zrotation
						End Site
						{
							OFFSET 0.000000 12.319244 0.000000
						}
					}
					JOINT RFootTongue
					{
						OFFSET -1.142200 -1.059800 6.665200
						CHANNELS 3 Xrotation Yrotation Zrotation
						End Site
						{
							OFFSET 0.000000 12.319243 0.000000
						}
					}
				}
				JOINT RightPantLeg
				{
					OFFSET -0.919482 -16.533978 -2.284800
					CHANNELS 3 Xrotation Yrotation Zrotation
					End Site
					{
						OFFSET -0.350400 24.744419 0.000000
					}
				}
			}
		}
	}
	JOINT Spine
	{
		OFFSET 0.000000 7.722000 1.166200
		CHANNELS 3 Xrotation Yrotation Zrotation
		JOINT Spine1
		{
			OFFSET 0.000000 12.024101 0.248800
			CHANNELS 3 Xrotation Yrotation Zrotation
			JOINT Spine2
			{
				OFFSET 0.000000 11.502998 -0.491200
				CHANNELS 3 Xrotation Yrotation Zrotation
				JOINT Neck
				{
					OFFSET 0.000000 18.430702 -3.123100
					CHANNELS 3 Xrotation Yrotation Zrotation
					JOINT Head
					{
						OFFSET 0.000000 9.051102 1.034000
						CHANNELS 3 Xrotation Yrotation Zrotation
						JOINT HairB
						{
							OFFSET 0.208400 24.786102 24.822300
							CHANNELS 3 Xrotation Yrotation Zrotation
							End Site
							{
								OFFSET 0.000000 32.263779 0.000000
							}
						}
						JOINT HairA
						{
							OFFSET -7.081100 24.428299 23.196600
							CHANNELS 3 Xrotation Yrotation Zrotation
							End Site
							{
								OFFSET 0.000000 32.263779 0.000000
							}
						}
						JOINT Hat
						{
							OFFSET 16.728800 15.048294 -15.439601
							CHANNELS 3 Xrotation Yrotation Zrotation
							End Site
							{
								OFFSET 0.000000 32.263779 0.000000
							}
						}
					}
				}
				JOINT LeftShoulder
				{
					OFFSET 6.197800 13.665199 -4.064700
					CHANNELS 3 Xrotation Yrotation Zrotation
					JOINT LeftArm
					{
						OFFSET 7.778100 -0.187103 -1.709300
						CHANNELS 3 Xrotation Yrotation Zrotation
						JOINT LeftForeArm
						{
							OFFSET 22.049376 0.000000 0.000000
							CHANNELS 3 Xrotation Yrotation Zrotation
							JOINT LeftHand
							{
								OFFSET 23.009392 0.000000 0.000000
								CHANNELS 3 Xrotation Yrotation Zrotation
								JOINT LeftHandThumb1
								{
									OFFSET 3.507191 -2.063065 3.133727
									CHANNELS 3 Xrotation Yrotation Zrotation
									JOINT LeftHandThumb2
									{
										OFFSET 3.101337 -1.790558 1.790558
										CHANNELS 3 Xrotation Yrotation Zrotation
										JOINT LeftHandThumb3
										{
											OFFSET 3.058640 -1.765907 1.765906
											CHANNELS 3 Xrotation Yrotation Zrotation
											End Site
											{
												OFFSET -0.415260 3.926476 -0.049563
											}
										}
									}
								}
								JOINT LeftHandIndex1
								{
									OFFSET 11.334419 -0.901459 3.706815
									CHANNELS 3 Xrotation Yrotation Zrotation
									JOINT LeftHandIndex2
									{
										OFFSET 3.283112 0.000000 0.000000
										CHANNELS 3 Xrotation Yrotation Zrotation
										JOINT LeftHandIndex3
										{
											OFFSET 3.323853 0.000000 0.000000
											CHANNELS 3 Xrotation Yrotation Zrotation
											End Site
											{
												OFFSET -1.135597 3.097809 0.402452
											}
										}
									}
								}
								JOINT LeftHandMiddle1
								{
									OFFSET 11.335861 0.000000 0.000000
									CHANNELS 3 Xrotation Yrotation Zrotation
									JOINT LeftHandMiddle2
									{
										OFFSET 3.410492 0.000000 0.000000
										CHANNELS 3 Xrotation Yrotation Zrotation
										JOINT LeftHandMiddle3
										{
											OFFSET 3.312172 0.000000 0.000000
											CHANNELS 3 Xrotation Yrotation Zrotation
											End Site
											{
												OFFSET -1.150200 3.080154 0.400270
											}
										}
									}
								}
								JOINT LeftHandRing1
								{
									OFFSET 11.514786 -0.013176 -3.003090
									CHANNELS 3 Xrotation Yrotation Zrotation
									JOINT LeftHandRing2
									{
										OFFSET 3.053307 0.000000 0.000000
										CHANNELS 3 Xrotation Yrotation Zrotation
										JOINT LeftHandRing3
										{
											OFFSET 3.295807 0.000000 0.000000
											CHANNELS 3 Xrotation Yrotation Zrotation
											End Site
											{
												OFFSET -1.281006 3.013344 0.375733
											}
										}
									}
								}
								JOINT LeftHandPinky1
								{
									OFFSET 10.518692 -0.960396 -5.730441
									CHANNELS 3 Xrotation Yrotation Zrotation
									JOINT LeftHandPinky2
									{
										OFFSET 2.861649 0.000000 0.000000
										CHANNELS 3 Xrotation Yrotation Zrotation
										JOINT LeftHandPinky3
										{
											OFFSET 2.863380 0.000000 0.000000
											CHANNELS 3 Xrotation Yrotation Zrotation
											End Site
											{
												OFFSET -0.843597 2.711159 0.369971
											}
										}
									}
								}
							}
							JOINT LSleeve
							{
								OFFSET 6.676277 -0.344902 -1.011730
								CHANNELS 3 Xrotation Yrotation Zrotation
								End Site
								{
									OFFSET 0.000000 14.885353 0.000000
								}
							}
						}
					}
				}
				JOINT RightShoulder
				{
					OFFSET -6.197800 13.665199 -4.064700
					CHANNELS 3 Xrotation Yrotation Zrotation
					JOINT RightArm
					{
						OFFSET -7.778100 -0.187103 -1.709300
						CHANNELS 3 Xrotation Yrotation Zrotation
						JOINT RightForeArm
						{
							OFFSET -22.049376 0.000000 0.000000
							CHANNELS 3 Xrotation Yrotation Zrotation
							JOINT RightHand
							{
								OFFSET -23.009392 0.000000 0.000000
								CHANNELS 3 Xrotation Yrotation Zrotation
								JOINT RightHandThumb1
								{
									OFFSET -3.507191 -2.063065 3.133727
									CHANNELS 3 Xrotation Yrotation Zrotation
									JOINT RightHandThumb2
									{
										OFFSET -3.101337 -1.790558 1.790558
										CHANNELS 3 Xrotation Yrotation Zrotation
										JOINT RightHandThumb3
										{
											OFFSET -3.058640 -1.765907 1.765906
											CHANNELS 3 Xrotation Yrotation Zrotation
											End Site
											{
												OFFSET 0.415260 3.926476 -0.049563
											}
										}
									}
								}
								JOINT RightHandIndex1
								{
									OFFSET -11.334419 -0.901459 3.706815
									CHANNELS 3 Xrotation Yrotation Zrotation
									JOINT RightHandIndex2
									{
										OFFSET -3.283112 0.000000 0.000000
										CHANNELS 3 Xrotation Yrotation Zrotation
										JOINT RightHandIndex3
										{
											OFFSET -3.323853 0.000000 0.000000
											CHANNELS 3 Xrotation Yrotation Zrotation
											End Site
											{
												OFFSET 1.135597 3.097809 0.402452
											}
										}
									}
								}
								JOINT RightHandMiddle1
								{
									OFFSET -11.335861 0.000000 0.000000
									CHANNELS 3 Xrotation Yrotation Zrotation
									JOINT RightHandMiddle2
									{
										OFFSET -3.410492 0.000000 0.000000
										CHANNELS 3 Xrotation Yrotation Zrotation
										JOINT RightHandMiddle3
										{
											OFFSET -3.312172 0.000000 0.000000
											CHANNELS 3 Xrotation Yrotation Zrotation
											End Site
											{
												OFFSET 1.150200 3.080154 0.400270
											}
										}
									}
								}
								JOINT RightHandRing1
								{
									OFFSET -11.514786 -0.013176 -3.003090
									CHANNELS 3 Xrotation Yrotation Zrotation
									JOINT RightHandRing2
									{
										OFFSET -3.053307 0.000000 0.000000
										CHANNELS 3 Xrotation Yrotation Zrotation
										JOINT RightHandRing3
										{
											OFFSET -3.295807 0.000000 0.000000
											CHANNELS 3 Xrotation Yrotation Zrotation
											End Site
											{
												OFFSET 1.281006 3.013344 0.375733
											}
										}
									}
								}
								JOINT RightHandPinky1
								{
									OFFSET -10.518692 -0.960396 -5.730441
									CHANNELS 3 Xrotation Yrotation Zrotation
									JOINT RightHandPinky2
									{
										OFFSET -2.861649 0.000000 0.000000
										CHANNELS 3 Xrotation Yrotation Zrotation
										JOINT RightHandPinky3
										{
											OFFSET -2.863380 0.000000 0.000000
											CHANNELS 3 Xrotation Yrotation Zrotation
											End Site
											{
												OFFSET 0.843597 2.711159 0.369971
											}
										}
									}
								}
							}
							JOINT RSleeve
							{
								OFFSET -6.676277 -0.344902 -1.011730
								CHANNELS 3 Xrotation Yrotation Zrotation
								End Site
								{
									OFFSET 0.000000 14.885353 0.000000
								}
							}
						}
					}
				}
				JOINT Backpack
				{
					OFFSET 0.000000 -2.471497 36.677502
					CHANNELS 3 Xrotation Yrotation Zrotation
					End Site
					{
						OFFSET 0.000000 20.427315 0.000000
					}
				}
				JOINT Hood
				{
					OFFSET 0.000000 18.754097 -10.431000
					CHANNELS 3 Xrotation Yrotation Zrotation
					JOINT Hood1
					{
						OFFSET 0.000000 -5.011002 -7.685901
						CHANNELS 3 Xrotation Yrotation Zrotation
						End Site
						{
							OFFSET 0.000000 9.175140 0.000000
						}
					}
				}
				JOINT LHoodieString
				{
					OFFSET 5.250500 16.397697 3.089900
					CHANNELS 3 Xrotation Yrotation Zrotation
					JOINT LHoodieString1
					{
						OFFSET 0.257700 -6.364304 3.694600
						CHANNELS 3 Xrotation Yrotation Zrotation
						JOINT LHoodieString2
						{
							OFFSET 0.000000 -9.643799 2.679100
							CHANNELS 3 Xrotation Yrotation Zrotation
							End Site
							{
								OFFSET 0.000000 10.009018 0.000000
							}
						}
					}
				}
				JOINT RHoodieString
				{
					OFFSET -5.250500 16.397697 3.089900
					CHANNELS 3 Xrotation Yrotation Zrotation
					JOINT RHoodieString1
					{
						OFFSET -0.257700 -6.364304 3.694600
						CHANNELS 3 Xrotation Yrotation Zrotation
						JOINT RHoodieString2
						{
							OFFSET 0.000000 -9.643799 2.679100
							CHANNELS 3 Xrotation Yrotation Zrotation
							End Site
							{
								OFFSET 0.000000 10.009018 0.000000
							}
						}
					}
				}
			}
			JOINT LBackpack_Strap
			{
				OFFSET 15.223200 -7.719803 -6.610900
				CHANNELS 3 Xrotation Yrotation Zrotation
				End Site
				{
					OFFSET 0.000000 16.040596 0.000000
				}
			}
			JOINT RBackpack_Strap
			{
				OFFSET -15.223000 -7.719803 -6.610900
				CHANNELS 3 Xrotation Yrotation Zrotation
				End Site
				{
					OFFSET 0.000000 16.040596 0.000000
				}
			}
		}
	}
	JOINT BoyFacialAnim_Joint
	{
		OFFSET 1.000000 -82.208099 -1.550900
		CHANNELS 3 Xrotation Yrotation Zrotation
		End Site
		{
			OFFSET 0.000000 30.012791 0.000000
		}
	}
}
MOTION
Frames: 4
Frame Time: 0.033333
-1.279227 75.027603 0.992585 6.134850 -32.962698 -1.543628 -0.000000 -0.000002 0.000000 -37.244963 -0.637169 27.713055 33.778554 -0.104190 0.083588 0.506007 0.755379 -18.909000 0.000000 0.000002 -0.000000 0.000000 0.000002 -0.000000 0.000000 -0.000001 0.000001 -26.501313 -5.440191 -18.196365 33.570755 9.752754 0.691222 -14.965680 4.204771 17.046342 0.000000 -0.000003 -0.000000 0.000000 -0.000003 -0.000000 -0.000002 -0.000000 -0.000002 1.469669 2.528061 3.244985 3.782814 5.701518 2.455310 3.834880 5.759887 2.223642 9.014583 3.464521 -0.443201 -8.297079 22.894401 -9.687297 0.000000 0.000000 -0.000000 0.000000 0.000000 -0.000000 0.000000 0.000000 -0.000000 1.633959 -18.911764 -2.170602 -66.457980 10.667095 -14.380608 0.000013 -137.484495 0.000025 -42.916869 12.479933 -0.744115 16.105969 -0.106273 -18.050636 98.343584 38.949191 -65.310460 0.000000 0.000002 0.000002 8.023196 6.786243 -99.575470 6.995758 6.880259 -90.956181 -0.000001 -0.000001 -0.000005 8.021273 6.786560 -99.559283 6.997701 6.880216 -90.972396 0.000002 -0.000002 0.000003 8.023183 6.786216 -99.575477 6.995745 6.880251 -90.956188 0.000000 -0.000003 0.000001 12.046782 6.113535 -99.517229 6.996833 2.794003 -90.968797 -0.000000 0.000000 -0.000002 -0.000001 -0.000001 0.000000 1.542203 17.106767 1.796926 -48.207035 17.518691 62.579628 0.000077 112.203042 -0.000086 -9.876866 -1.874605 -5.361640 15.852883 -16.537520 23.644365 37.660680 -67.878598 8.692259 -0.000002 -0.000001 0.000001 7.291095 -6.939821 92.835255 8.879205 -6.675798 106.172921 -0.000001 -0.000000 0.000002 7.291082 -6.939820 92.835262 8.879201 -6.675781 106.172927 0.000000 0.000002 0.000000 7.291079 -6.939789 92.835248 8.879188 -6.675792 106.172914 -0.000000 -0.000001 0.000002 7.291074 -6.939784 92.835248 8.879217 -6.675803 106.172914 0.000002 0.000001 0.000000 -0.000000 -0.000000 0.000002 0.000001 -0.000002 0.000000 0.000001 -0.000002 0.000000 0.000001 -0.000002 0.000000 0.000001 -0.000002 0.000000 0.000001 -0.000002 -0.000000 0.000001 0.000000 -0.000000 0.000001 -0.000002 0.000000 0.000001 -0.000002 -0.000000 0.000001 0.000000 -0.000000 0.000000 -0.000000 -0.000000 0.000000 -0.000000 -0.000000 -0.000000 -0.000002 0.000000 
-1.344223 75.106194 0.966200 6.018104 -32.673719 -1.588769 -0.000000 0.000000 0.000000 -36.913846 -0.715294 27.574471 33.228379 -0.098052 0.066171 0.793926 0.719407 -18.919872 0.000000 -0.000002 0.000000 0.000000 -0.000002 0.000000 -0.000000 0.000002 -0.000000 -26.095545 -5.343234 -18.087046 33.342979 9.756496 0.691365 -14.938324 3.731827 16.973843 -0.000000 0.000002 0.000000 -0.000000 0.000002 0.000000 -0.000001 -0.000000 -0.000001 1.410283 2.508039 3.125236 3.671108 5.648928 2.313758 3.713179 5.705057 2.088515 9.131585 3.636592 -0.732357 -7.894071 23.250768 -9.033482 -0.000001 0.000001 -0.000000 -0.000001 0.000001 -0.000000 -0.000001 0.000001 -0.000000 1.589956 -18.818063 -2.453731 -65.903245 9.395351 -13.672341 0.000028 -136.580301 0.000046 -42.265200 12.207979 -1.059786 16.105972 -0.106274 -18.050633 98.343584 38.949191 -65.310460 0.000002 0.000001 0.000002 8.023200 6.786241 -99.575456 6.995756 6.880256 -90.956181 -0.000001 -0.000001 -0.000002 8.021277 6.786557 -99.559276 6.997703 6.880216 -90.972403 -0.000000 -0.000002 0.000002 8.023184 6.786216 -99.575470 6.995749 6.880250 -90.956195 -0.000001 0.000004 0.000000 12.046785 6.113535 -99.517222 6.996836 2.794002 -90.968790 -0.000001 0.000000 -0.000002 -0.000001 0.000001 0.000002 1.547296 17.301137 1.871505 -48.203585 17.618254 62.604872 0.000190 112.042389 -0.000204 -9.839814 -1.887954 -5.355790 15.852881 -16.537515 23.644360 37.660683 -67.878598 8.692251 -0.000002 0.000002 0.000002 7.291096 -6.939820 92.835255 8.879208 -6.675795 106.172914 -0.000002 -0.000003 0.000001 7.291084 -6.939818 92.835262 8.879203 -6.675782 106.172934 -0.000001 0.000004 0.000000 7.291081 -6.939789 92.835248 8.879191 -6.675791 106.172921 -0.000000 0.000001 0.000004 7.291076 -6.939783 92.835248 8.879215 -6.675803 106.172914 0.000001 0.000001 0.000004 -0.000000 0.000001 0.000000 0.000001 -0.000002 0.000000 0.000001 -0.000002 0.000000 0.000001 -0.000002 0.000000 0.000001 -0.000002 0.000000 0.000001 -0.000002 -0.000000 0.000001 -0.000001 -0.000000 0.000001 -0.000002 0.000000 0.000001 -0.000002 -0.000000 0.000001 -0.000001 -0.000000 0.000000 0.000000 0.000001 0.000000 0.000000 0.000001 -0.000000 0.000000 0.000000 
-1.373925 74.945541 0.736943 6.572825 -32.124231 -1.425394 -0.000001 -0.000001 -0.000000 -37.885864 -1.198192 27.569492 33.440787 -0.431644 0.014204 1.018068 0.694860 -18.915179 0.000000 -0.000000 0.000000 0.000000 -0.000000 0.000000 0.000001 0.000002 -0.000000 -26.867702 -4.929313 -17.799850 34.334360 9.738698 0.643956 -15.349537 2.825667 16.803809 -0.000000 -0.000003 -0.000000 -0.000000 -0.000003 -0.000000 0.000000 -0.000002 -0.000000 1.279699 2.483428 2.962284 3.467745 5.560466 2.063512 3.505360 5.612043 1.840699 9.449138 3.657531 -0.950138 -7.616598 23.240173 -8.958994 0.000000 0.000000 0.000000 0.000000 0.000000 0.000000 0.000000 0.000000 0.000000 1.514875 -18.275826 -2.744084 -65.066875 7.669485 -13.114699 0.000016 -135.811714 0.000019 -40.910023 11.460327 -1.310989 16.105974 -0.106273 -18.050631 98.343584 38.949191 -65.310467 0.000001 0.000000 -0.000001 8.023200 6.786242 -99.575463 6.995757 6.880257 -90.956188 0.000000 -0.000001 -0.000004 8.021276 6.786557 -99.559276 6.997703 6.880219 -90.972403 -0.000000 -0.000000 0.000005 8.023184 6.786216 -99.575463 6.995748 6.880253 -90.956188 -0.000000 -0.000000 -0.000004 12.046786 6.113532 -99.517229 6.996833 2.794002 -90.968797 -0.000000 0.000002 0.000002 0.000001 -0.000000 0.000002 1.598852 17.631379 1.636841 -48.610084 17.147849 63.046348 0.000116 111.898969 -0.000129 -10.081244 -1.939576 -5.230342 15.852886 -16.537517 23.644363 37.660676 -67.878604 8.692249 -0.000002 0.000001 -0.000000 7.291095 -6.939819 92.835255 8.879208 -6.675798 106.172914 -0.000000 -0.000000 0.000002 7.291085 -6.939817 92.835262 8.879204 -6.675784 106.172927 0.000001 -0.000001 -0.000000 7.291081 -6.939788 92.835248 8.879184 -6.675788 106.172914 -0.000002 -0.000001 -0.000002 7.291075 -6.939786 92.835248 8.879215 -6.675806 106.172914 0.000001 -0.000000 0.000002 0.000000 -0.000004 -0.000000 0.000000 -0.000001 -0.000000 0.000000 -0.000001 -0.000000 0.000000 -0.000001 -0.000000 0.000000 -0.000001 -0.000000 0.000000 -0.000001 -0.000000 0.000001 -0.000001 0.000000 0.000000 -0.000001 -0.000000 0.000000 -0.000001 -0.000000 0.000001 -0.000001 0.000000 -0.000000 0.000000 -0.000000 -0.000000 0.000000 -0.000000 -0.000001 -0.000001 -0.000000 
-1.389111 74.472321 0.426760 7.322196 -31.506372 -1.243185 0.000000 0.000000 -0.000000 -39.925123 -1.864666 27.751646 34.965565 -1.311930 -0.046869 0.761290 0.812699 -18.877588 -0.000000 -0.000000 -0.000000 -0.000000 -0.000000 -0.000000 -0.000000 0.000000 -0.000001 -28.564147 -4.334739 -17.569029 36.757698 9.704456 0.591008 -16.393714 1.939794 16.592587 0.000000 -0.000002 -0.000000 0.000000 -0.000002 -0.000000 -0.000001 -0.000001 0.000000 1.264870 2.462071 2.794080 3.430096 5.380958 1.716744 3.454319 5.428318 1.502676 9.628375 3.608472 -1.182352 -7.451702 22.955607 -9.189823 0.000001 0.000001 -0.000000 0.000001 0.000001 -0.000000 0.000001 0.000001 -0.000000 1.467336 -17.598520 -2.755434 -64.442473 6.620490 -13.032239 -0.000003 -136.325959 0.000004 -40.495509 11.082532 -1.116816 16.105972 -0.106273 -18.050634 98.343584 38.949195 -65.310460 0.000001 0.000001 0.000002 8.023197 6.786242 -99.575463 6.995756 6.880256 -90.956181 -0.000002 -0.000000 -0.000004 8.021272 6.786560 -99.559283 6.997703 6.880218 -90.972396 -0.000001 0.000001 0.000002 8.023182 6.786218 -99.575477 6.995746 6.880252 -90.956188 0.000000 -0.000001 -0.000002 12.046783 6.113535 -99.517229 6.996835 2.794002 -90.968790 -0.000000 0.000001 0.000002 -0.000002 0.000000 0.000001 1.739079 17.862106 0.671361 -49.293796 16.135598 63.862808 0.000034 112.213321 -0.000045 -10.560647 -1.995554 -5.015779 15.852883 -16.537510 23.644361 37.660683 -67.878598 8.692249 -0.000000 -0.000001 0.000000 7.291096 -6.939815 92.835255 8.879208 -6.675798 106.172914 -0.000001 0.000004 0.000001 7.291081 -6.939812 92.835262 8.879201 -6.675781 106.172934 0.000002 0.000000 -0.000004 7.291079 -6.939777 92.835248 8.879186 -6.675790 106.172921 -0.000001 0.000002 -0.000003 7.291076 -6.939777 92.835248 8.879215 -6.675805 106.172914 -0.000002 0.000000 0.000002 0.000002 -0.000002 -0.000001 0.000001 -0.000000 -0.000001 0.000001 -0.000000 -0.000001 0.000001 -0.000000 -0.000001 0.000001 -0.000000 -0.000001 0.000001 -0.000000 -0.000001 0.000001 -0.000002 -0.000000 0.000001 -0.000000 -0.000001 0.000001 -0.000000 -0.000001 0.000001 -0.000002 -0.000000 0.000001 -0.000001 0.000001 0.000001 -0.000001 0.000001 0.000000 0.000000 -0.000000 
